<svg width="24" height="24" viewBox="0 0 24 24" fill="none" xmlns="http://www.w3.org/2000/svg">
<path fill-rule="evenodd" clip-rule="evenodd" d="M12 3C11.3283 3 10.7067 3.3539 10.3519 3.92361L2.44721 17.6056C2.06632 18.2188 2.05221 18.9862 2.41031 19.6136C2.76841 20.2411 3.44086 20.625 4.17082 20.625H19.8292C20.5591 20.625 21.2316 20.2411 21.5897 19.6136C21.9478 18.9862 21.9337 18.2188 21.5528 17.6056L13.6481 3.92361C13.2933 3.3539 12.6717 3 12 3ZM11.7481 5.0381C11.8228 4.91884 11.9067 4.6 12 4.6C12.0933 4.6 12.1772 4.91884 12.2519 5.0381L20.0528 18.5694C20.1243 18.6845 20.1313 18.8256 20.0714 18.9471C20.0114 19.0687 19.8927 19.025 19.8292 19.025H4.17082C4.10728 19.025 3.98859 19.0687 3.92863 18.9471C3.86867 18.8256 3.87565 18.6845 3.94721 18.5694L11.7481 5.0381Z" fill="white" fill-opacity="0.88"/>
<path d="M12 8.5C12.4142 8.5 12.75 8.83579 12.75 9.25V13.25C12.75 13.6642 12.4142 14 12 14C11.5858 14 11.25 13.6642 11.25 13.25V9.25C11.25 8.83579 11.5858 8.5 12 8.5Z" fill="white" fill-opacity="0.88"/>
<path d="M12 15.5C11.4477 15.5 11 15.9477 11 16.5C11 17.0523 11.4477 17.5 12 17.5C12.5523 17.5 13 17.0523 13 16.5C13 15.9477 12.5523 15.5 12 15.5Z" fill="white" fill-opacity="0.88"/>
</svg>
