<svg width="24" height="24" viewBox="0 0 24 24" fill="none" xmlns="http://www.w3.org/2000/svg">
<path fill-rule="evenodd" clip-rule="evenodd" d="M12 8.5C10.067 8.5 8.5 10.067 8.5 12C8.5 13.933 10.067 15.5 12 15.5C13.933 15.5 15.5 13.933 15.5 12C15.5 10.067 13.933 8.5 12 8.5ZM10.1 12C10.1 10.9507 10.9507 10.1 12 10.1C13.0493 10.1 13.9 10.9507 13.9 12C13.9 13.0493 13.0493 13.9 12 13.9C10.9507 13.9 10.1 13.0493 10.1 12Z" fill="white" fill-opacity="0.88"/>
<path fill-rule="evenodd" clip-rule="evenodd" d="M10.5 2.25C9.80964 2.25 9.25 2.80964 9.25 3.5V4.47C8.45252 4.74321 7.71665 5.14887 7.07 5.66602L6.17404 5.14802C5.5757 4.80265 4.80862 5.00835 4.46325 5.60669L2.96325 8.20669C2.61789 8.80504 2.82359 9.57211 3.42193 9.91748L4.30902 10.43C4.27012 10.9494 4.25 11.4733 4.25 12C4.25 12.5267 4.27012 13.0506 4.30902 13.57L3.42193 14.0825C2.82359 14.4279 2.61789 15.195 2.96325 15.7933L4.46325 18.3933C4.80862 18.9917 5.5757 19.1974 6.17404 18.852L7.07 18.334C7.71665 18.8511 8.45252 19.2568 9.25 19.53V20.5C9.25 21.1904 9.80964 21.75 10.5 21.75H13.5C14.1904 21.75 14.75 21.1904 14.75 20.5V19.53C15.5475 19.2568 16.2834 18.8511 16.93 18.334L17.826 18.852C18.4243 19.1974 19.1914 18.9917 19.5368 18.3933L21.0368 15.7933C21.3821 15.195 21.1764 14.4279 20.5781 14.0825L19.691 13.57C19.7299 13.0506 19.75 12.5267 19.75 12C19.75 11.4733 19.7299 10.9494 19.691 10.43L20.5781 9.91748C21.1764 9.57211 21.3821 8.80504 21.0368 8.20669L19.5368 5.60669C19.1914 5.00835 18.4243 4.80265 17.826 5.14802L16.93 5.66602C16.2834 5.14887 15.5475 4.74321 14.75 4.47V3.5C14.75 2.80964 14.1904 2.25 13.5 2.25H10.5ZM10.85 3.85H13.15V5.08C13.15 5.49118 13.4211 5.85013 13.8129 5.9702C14.775 6.26512 15.6377 6.77916 16.3438 7.45211C16.6555 7.7493 17.1274 7.80367 17.4997 7.58862L18.599 6.95307L19.749 9.04693L18.661 9.67554C18.2969 9.88613 18.1122 10.3065 18.2012 10.7157C18.3141 11.2348 18.35 11.591 18.35 12C18.35 12.409 18.3141 12.7652 18.2012 13.2843C18.1122 13.6935 18.2969 14.1139 18.661 14.3245L19.749 14.9531L18.599 17.0469L17.4997 16.4114C17.1274 16.1963 16.6555 16.2507 16.3438 16.5479C15.6377 17.2208 14.775 17.7349 13.8129 18.0298C13.4211 18.1499 13.15 18.5088 13.15 18.92V20.15H10.85V18.92C10.85 18.5088 10.5789 18.1499 10.1871 18.0298C9.22503 17.7349 8.36234 17.2208 7.65619 16.5479C7.34454 16.2507 6.87264 16.1963 6.50031 16.4114L5.40096 17.0469L4.25096 14.9531L5.33902 14.3245C5.70309 14.1139 5.88784 13.6935 5.79885 13.2843C5.68594 12.7652 5.65 12.409 5.65 12C5.65 11.591 5.68594 11.2348 5.79885 10.7157C5.88784 10.3065 5.70309 9.88613 5.33902 9.67554L4.25096 9.04693L5.40096 6.95307L6.50031 7.58862C6.87264 7.80367 7.34454 7.7493 7.65619 7.45211C8.36234 6.77916 9.22503 6.26512 10.1871 5.9702C10.5789 5.85013 10.85 5.49118 10.85 5.08V3.85Z" fill="white" fill-opacity="0.88"/>
</svg>
