<svg width="24" height="24" viewBox="0 0 24 24" fill="none" xmlns="http://www.w3.org/2000/svg">
<path fill-rule="evenodd" clip-rule="evenodd" d="M12 3C7.02944 3 3 7.02944 3 12C3 16.9706 7.02944 21 12 21C16.9706 21 21 16.9706 21 12C21 7.02944 16.9706 3 12 3ZM4.6 12C4.6 7.91223 7.91223 4.6 12 4.6C16.0878 4.6 19.4 7.91223 19.4 12C19.4 16.0878 16.0878 19.4 12 19.4C7.91223 19.4 4.6 16.0878 4.6 12Z" fill="white" fill-opacity="0.88"/>
<path d="M11 8C11 7.44772 11.4477 7 12 7C12.5523 7 13 7.44772 13 8C13 8.55228 12.5523 9 12 9C11.4477 9 11 8.55228 11 8Z" fill="white" fill-opacity="0.88"/>
<path d="M12 10.5C12.4142 10.5 12.75 10.8358 12.75 11.25V16.25C12.75 16.6642 12.4142 17 12 17C11.5858 17 11.25 16.6642 11.25 16.25V11.25C11.25 10.8358 11.5858 10.5 12 10.5Z" fill="white" fill-opacity="0.88"/>
</svg>
